<?xml version="1.0" encoding="UTF-8" standalone="no"?><!DOCTYPE svg PUBLIC "-//W3C//DTD SVG 1.1//EN" "http://www.w3.org/Graphics/SVG/1.1/DTD/svg11.dtd"><svg width="100%" height="100%" viewBox="0 0 37050 37050" version="1.1" xmlns="http://www.w3.org/2000/svg" xmlns:xlink="http://www.w3.org/1999/xlink" xml:space="preserve" xmlns:serif="http://www.serif.com/" style="fill-rule:evenodd;clip-rule:evenodd;stroke-linejoin:round;stroke-miterlimit:2;"><path d="M36623.2,21117l-0,8823.17c-0,-0 4.4,642.507 0.971,642.507l-36203.9,0l-2.238,-681.188l-0,-10540.9c-0,0 -400.509,16.06 -417.6,-343.231c-10.985,-230.86 281.079,-334.464 405.066,-319.672c0,-0 5.962,-377.111 5.962,-716.06c0,-338.944 287.385,-691.1 640.322,-1013.15c352.937,-322.045 490.407,-440.929 643.857,-582.498c173.192,-159.779 205.366,-177.565 188.992,-421.194c-26.531,-394.739 150.467,-527.048 373.737,-505.976c261.216,24.659 237.928,235.478 237.928,516.233c-0,260.552 80.05,300.653 80.05,300.653c0,0 77.674,96.578 697.294,601.622c308.964,251.828 845.878,709.108 845.878,958.706c0,133.078 10.282,861.66 10.282,861.66c0,-0 377.572,6.048 390.703,260.709c12.276,237.989 -57.174,434.471 -433.723,412.081l0,1791.14l4432.84,0l-0,-1825.76c-0,0 -490.412,-9.892 -473.219,-338.603c17.192,-328.706 256.595,-271.529 417.451,-299.562c-0,-0 -8.576,-345.402 3.987,-628.442c10.957,-246.815 -36.864,-349.023 179.856,-584.925c320.162,-348.501 1160.42,-1030.59 1343.16,-1225.52c-0,-0 54.671,-114.631 49.972,-329.348c-4.7,-214.721 -28.64,-459.795 288.76,-453.224c321.956,6.666 304.255,232.666 301.165,432.473c-4.699,303.904 48.33,356.656 48.33,356.656c0,-0 308.571,278.786 744.315,602.544c435.74,323.763 820.319,653.85 820.319,1047.61c-0,393.762 3.982,782.172 3.982,782.172c0,-0 301.337,-42.342 352.914,155.886c51.577,198.229 62.525,361.827 -131.165,394.809c-193.691,32.982 -315.523,92.483 -315.523,92.483l0,611.109l1561.84,-1159.49l15.583,-1050.44c4.542,-306.085 162.4,-606.096 449.782,-759.733c287.382,-153.632 435.74,-161.882 435.74,-161.882l-18.737,-1820.13c-0,0 -799.625,-508.665 -854.292,-1509.57c-54.672,-1000.9 -15.647,-1096.68 135.865,-1514.58c151.517,-417.898 162.46,-394.654 162.46,-946.416c0,-551.762 -46.813,-1091.74 331.106,-1083.49c377.923,8.244 332.654,301.897 332.654,358.392c0,137.55 0,490.588 0,490.588c0,-0 2342.72,-1645.06 2705.05,-1858.13l-0,-1501.32c-0,0 -9.44,-458.71 392.021,-733.347c412.025,-281.865 756.512,-282.29 1190.66,-147.44c431.845,134.129 557.002,563.685 589.782,798.196c32.775,234.507 0,1572.37 0,1572.37l2723.79,1848.17c-0,-0 -4.699,-184.07 -4.699,-444.285c-0,-260.214 76.498,-389.791 326.405,-384.847c249.908,4.949 337.35,219.402 337.35,338.608c-0,175.099 -0,1397.29 -0,1397.29c-0,0 510.758,764.742 338.959,1772.24c-0,-0 -114.038,812.569 -816.817,1565.77l-0,1755.75c-0,0 649.782,209.705 829.375,761.382l-0,1351.05l1521.14,1045.5l-5.689,-593.362l-276.24,-4.836c-6.568,-0.088 -13.085,-1.233 -19.329,-3.399c-45.916,-19.049 -226.438,-105.992 -236.003,-343.932c-9.903,-246.263 170.222,-354.332 424.828,-355.98l-20.282,-673.841c0,-0 1.545,-376.603 368.58,-687.104c367.035,-310.5 974.578,-842.319 1165.12,-1040.55l-0,-409.571c-0,0 -17.262,-339.155 341.979,-339.155c359.246,-0 338.718,231.886 338.718,281.426c0,49.539 10.597,440.845 10.597,440.845c0,-0 1151.15,921.545 1374.46,1194.12c223.316,272.57 150.855,289.291 157.659,566.518c7.1,289.059 5.93,734.32 5.93,734.32c0,-0 373.224,-34.783 376.901,302.848c2.595,237.831 -78.178,351.071 -386.758,337.034l13.849,1837.34l4476.4,12.615l-4.621,-1828.52l-282.493,0c0,0 -252.761,-30.125 -231.734,-379.948c18.964,-315.488 284.306,-280.113 373.931,-281.371c70.287,-0.987 134.496,-0 134.496,-0c-0,-0 -11.203,-630.228 -4.958,-876.348c6.248,-246.12 153.061,-432.739 446.687,-692.052c293.631,-259.313 732.525,-654.116 930.855,-844.036c87.757,-84.032 76.499,-354.283 76.499,-540.038c0,-91.763 96.785,-331.669 362.336,-313.528c265.554,18.142 335.804,187.258 335.804,382.857c0,155.615 21.388,416.758 21.388,416.758c-0,0 309.782,267.025 706.438,516.441c396.66,249.415 424.736,341.834 648.112,530.17c223.376,188.331 240.504,566.582 251.452,758.145c10.944,191.568 0,579.711 0,579.711c0,-0 348.298,92.552 335.805,332.007c-12.493,239.459 -81.198,407.937 -427.951,407.937l1.42,1761.32l0.019,-0.025Zm-11799.4,594.285l-549.042,0l-0,5838.75l549.042,0l0,-5838.75Zm-7016.32,-12173.5c-426.984,245.637 -2442.27,1586.05 -2906.72,2037.64c-464.449,451.596 -612.83,1155.09 -540.892,1731.07c71.933,575.976 406.04,1025.2 406.04,1025.2l2714.95,-0c-0,-0 4.704,-553.182 4.704,-705.586c-0,-152.403 -33.192,-361.575 85.911,-532.722c119.102,-171.151 325.957,-452.084 626.364,-753.95c300.406,-301.862 573.223,-16.124 573.223,-16.124c0,0 588.649,629.867 674.051,760.582c85.403,130.71 47.197,446.815 47.197,446.815l0,799.401l2786.07,-0c593.312,-1010.14 411.295,-1868.93 78.673,-2429.82c-332.622,-560.883 -1063.04,-986.375 -1370.21,-1166.98c-307.169,-180.615 -1782.21,-1195.53 -1782.21,-1195.53l-1397.14,0Zm-14332,9832.67l-2437.01,0l-0,4671.98l2437.01,-0l0,-4671.98Zm-929.375,1347.87l0,793.47c0,181.528 -138.163,328.909 -308.344,328.909c-170.185,-0 -308.348,-147.381 -308.348,-328.909l-0,-793.47c-0,-181.527 138.163,-328.904 308.348,-328.904c170.181,0 308.344,147.377 308.344,328.904Zm18814.7,992.966l-452.35,0l0,5838.75l452.35,-0l-0,-5838.75Zm-6246.71,0.889l-1880.18,-0l0,5823.6l1880.18,0l0,-5823.6Zm20846.3,7547.11l-34952.2,0l0,633.992l34952.2,-0l-0,-633.992Zm-8136.3,-9877.07l-2373.95,-26.346l0,1093.29l16.212,8226.68l2357.74,0l-0,-9293.63Zm-705.286,3884.72l-0,1115.63c-0,255.232 -194.265,462.45 -433.543,462.45c-239.274,-0 -433.538,-207.218 -433.538,-462.45l-0,-1115.63c-0,-255.232 194.264,-462.445 433.538,-462.445c239.278,-0 433.543,207.213 433.543,462.445Zm-6692.36,-1554.76l-3837.58,-0l0,5823.6l3837.58,0l0,-5823.6Zm12558,128.524l-4500.73,-0l0,963.793l4500.73,-0l-0,-963.793Zm-2239.39,247.215c144.639,0 262.063,125.258 262.063,279.537c-0,154.283 -117.424,279.536 -262.063,279.536c-144.635,-0 -262.063,-125.253 -262.063,-279.536c0,-154.279 117.428,-279.537 262.063,-279.537Zm-22187.7,-247.215l-4498.38,-0l0,966.941l4498.38,-0l-0,-966.941Zm-2366.65,247.215c144.639,0 262.068,125.258 262.068,279.537c-0,154.283 -117.429,279.536 -262.068,279.536c-144.634,-0 -262.062,-125.253 -262.062,-279.536c-0,-154.279 117.428,-279.537 262.062,-279.537Zm-3963.78,-5322.85c-0,0 -384.335,318.998 -625.214,534.006c-240.874,215.003 -652.916,555.935 -652.916,770.163c-0,214.233 -2.05,579.291 -2.05,579.291l2582.83,-18.911c-0,0 -9.126,-274.371 -9.126,-556.246c0,-206.946 -255.299,-463.354 -558.911,-718.123c-244.158,-204.874 -734.617,-590.18 -734.617,-590.18Zm1762.33,8937.66c-0.555,0.034 -0.675,0.078 -0.351,0.133c0.116,0.019 0.236,-0.025 0.351,-0.133Zm0,-0c35.116,-2.339 1639.14,26.163 1620.27,18.57c-33.02,-13.296 332.738,17.12 306.48,-7.03c-11.614,-10.682 -5.064,-363.42 -5.064,-426.045c-0,-22.863 -6.124,-183.486 -6.462,-206.521c-0.962,-65.989 -6.082,-219.468 -6.082,-273.631c-0,-175.799 102.109,-280.365 266.919,-280.365c164.81,-0 280.55,95.043 280.55,270.843c0,170.713 -0.356,619.111 -0.356,789.819c0,11.437 -1.152,122.505 0.402,122.505c8.317,0 2106.72,-18.398 2098.4,-18.496c-16.207,-0.198 37.493,-2250.94 6.966,-2251.38c-27.142,-0.4 -4526.68,13.854 -4550.78,-6.355c1.161,21.827 -5.587,1290.39 -6.896,1289c-1.309,-1.397 9.87,965.801 -4.357,979.088l0.004,-0Zm24461.4,-0c35.116,-2.339 1807.32,26.163 1788.45,18.57c-33.02,-13.296 332.738,17.12 306.48,-7.03c-11.614,-10.682 -5.065,-363.42 -5.065,-426.045c0,-22.863 -6.124,-183.486 -6.462,-206.521c-0.962,-65.989 -6.082,-219.468 -6.082,-273.631c0,-175.799 102.109,-280.365 266.919,-280.365c164.811,-0 280.551,95.043 280.551,270.843c-0,170.713 -0.356,619.111 -0.356,789.819c-0,11.437 -1.152,122.505 0.402,122.505c8.316,0 1938.54,-18.398 1930.22,-18.496c-16.207,-0.198 37.493,-2250.94 6.966,-2251.38c-27.142,-0.4 -4526.68,13.854 -4550.78,-6.355c1.161,21.827 -5.587,1290.39 -6.896,1289c-1.309,-1.397 9.87,965.801 -4.357,979.088l0.004,-0Zm0,-0c-0.555,0.034 -0.675,0.078 -0.351,0.133c0.115,0.019 0.236,-0.025 0.351,-0.133Zm-24396.2,2951.97c35.116,-2.339 1639.14,26.163 1620.28,18.57c-33.016,-13.296 332.737,17.12 306.479,-7.03c-11.609,-10.677 -5.064,-363.42 -5.064,-426.044c-0,-22.863 -6.124,-183.487 -6.457,-206.522c-0.962,-65.989 -6.087,-219.468 -6.087,-273.631c-0,-175.799 102.113,-280.365 266.924,-280.365c164.805,-0 280.545,95.044 280.545,270.843c0,170.713 -0.351,619.111 -0.351,789.819c-0,11.437 -1.157,122.505 0.398,122.505c8.32,0 2106.72,-18.398 2098.4,-18.496c-16.202,-0.198 37.493,-2250.94 6.966,-2251.38c-27.142,-0.4 -4526.68,13.854 -4550.78,-6.355c1.161,21.827 -5.587,1290.39 -6.891,1289c-1.309,-1.396 9.865,965.801 -4.362,979.088l0.004,-0Zm0,-0c-0.55,0.034 -0.675,0.079 -0.351,0.133c0.12,0.02 0.236,-0.025 0.351,-0.133Zm-3015.06,-0.109c27.525,-1.066 670.725,26.119 652.252,18.679c-33.021,-13.296 332.738,17.12 306.48,-7.03c-11.61,-10.677 -5.065,-363.42 -5.065,-426.044c-0,-22.863 -6.124,-183.487 -6.462,-206.522c-0.962,-65.989 -6.082,-219.468 -6.082,-273.631c-0,-175.799 102.114,-280.365 266.919,-280.365c164.81,-0 280.55,95.044 280.55,270.843c0,170.713 -0.351,619.111 -0.351,789.819c-0,11.437 -1.156,122.505 0.398,122.505c8.321,0 939.231,-18.398 930.915,-18.496c-16.207,-0.198 37.493,-4189.25 6.966,-4189.7c-27.036,-0.395 -2394.09,13.74 -2415.37,-6.123c1.188,46.624 -5.578,3228.48 -6.887,3227.08c-1.305,-1.396 9.819,961.38 -4.26,978.979Zm-0,0c-1.027,0.04 -1.198,0.118 -0.454,0.242c0.153,0.024 0.306,-0.054 0.454,-0.242Zm11689,-6957.13l-549.047,0l-0,5852.61l549.047,0l-0,-5852.61Zm9070.21,-6664.21l-6621.83,-54.37l-0,1851.29l1173.18,0c-0,0 -7.702,-634.786 -7.702,-823.344c0,-124.32 17.318,-293.435 276.818,-297.959c311.998,-5.437 272.627,304.842 272.627,304.842l11.374,824.104l1276.68,-0l-0,-726.574c-0,-81.92 -9.404,-460.057 323.098,-460.057c332.507,-0 348.77,372.019 348.77,372.019l-0,797.797l1197.42,0l-0,-753.363c-0,-72.719 -18.09,-390.077 324.842,-390.077c342.928,-0 347.026,225.472 347.026,370.169l-0,756.423l1077.7,-0l-0,-1770.9Zm-5730.2,6678.08l-452.354,0l0,5838.75l452.354,0l0,-5838.75Zm-7016.32,-3013.63l2581.3,0l-0,-535.544c-0,-342.185 -228.506,-479.476 -228.506,-479.476c0,-0 -709.324,-710.84 -884.213,-834.563c-174.889,-123.724 -201.697,-100.53 -349.153,1.929c-147.452,102.464 -564.711,541.382 -871.401,877.753c-290.814,318.958 -240.111,454.329 -240.111,454.329l-7.914,515.572Zm156.679,684.533l-0,9293.63l2357.74,0l0,-4430.73l16.212,-3795.95l-0,-1093.29l-2373.95,26.346Zm1560.75,3884.75l-0,1115.63c-0,255.233 -194.26,462.45 -433.538,462.45c-239.279,0 -433.543,-207.217 -433.543,-462.45l-0,-1115.63c-0,-255.233 194.264,-462.445 433.543,-462.445c239.278,-0 433.538,207.212 433.538,462.445Zm15867.7,-6517.62c-0,0 -864.956,705.09 -1000.45,861.243c-135.485,156.154 -309.868,329.337 -309.868,612.396l0,474.706l2609.24,0l3.33,-501.59c-0,0 37.347,-334.253 -212.08,-537.78c-249.426,-203.522 -1090.18,-908.975 -1090.18,-908.975Zm-8557.76,-2417.64l844.334,0l-0,-808.508c-0,-70.913 -155.301,-316.086 -155.301,-316.086c0,0 -65.892,-70.868 -159.162,-209.501c-93.275,-138.629 -153.224,-59.013 -210.121,-2.28c-47.58,47.448 -76.295,77.761 -189.555,218.087c-115.347,142.901 -130.195,286.843 -130.195,286.843l0,831.445Zm-660.124,6269.17l-5277.56,0l-0,554.233l5277.56,-0l0,-554.233Zm16089,8053.7c27.854,-1.066 678.616,26.119 659.925,18.679c-33.404,-13.296 336.651,17.12 310.083,-7.03c-11.744,-10.677 -5.12,-363.42 -5.12,-426.044c-0,-22.863 -6.198,-183.487 -6.536,-206.522c-0.976,-65.989 -6.156,-219.468 -6.156,-273.631c0,-175.799 103.312,-280.365 270.06,-280.365c166.748,-0 283.848,95.044 283.848,270.843c0,170.713 -0.356,619.111 -0.356,789.819c-0,11.437 -1.17,122.505 0.402,122.505c8.418,0 950.277,-18.398 941.864,-18.496c-16.397,-0.198 37.937,-4189.25 7.049,-4189.7c-27.355,-0.395 -2422.25,13.74 -2443.78,-6.123c1.202,46.619 -5.643,3228.48 -6.966,3227.08c-1.323,-1.396 9.931,961.38 -4.315,978.979Zm-0,0c-1.036,0.04 -1.208,0.118 -0.454,0.242c0.153,0.024 0.306,-0.054 0.454,-0.242Zm-5070.16,0.109c-0.55,0.034 -0.675,0.079 -0.351,0.133c0.12,0.02 0.236,-0.025 0.351,-0.133Zm0,-0c35.116,-2.339 1807.32,26.163 1788.45,18.57c-33.016,-13.296 332.738,17.12 306.48,-7.03c-11.61,-10.677 -5.065,-363.42 -5.065,-426.044c0,-22.863 -6.124,-183.487 -6.457,-206.522c-0.962,-65.989 -6.087,-219.468 -6.087,-273.631c0,-175.799 102.114,-280.365 266.924,-280.365c164.81,-0 280.546,95.044 280.546,270.843c-0,170.713 -0.352,619.111 -0.352,789.819c0,11.437 -1.156,122.505 0.398,122.505c8.321,0 1938.54,-18.398 1930.22,-18.496c-16.203,-0.198 37.493,-2250.94 6.966,-2251.38c-27.142,-0.4 -4526.68,13.854 -4550.78,-6.355c1.161,21.827 -5.587,1290.39 -6.892,1289c-1.309,-1.396 9.866,965.801 -4.361,979.088l0.004,-0Zm-10358.7,-7496.39l815.744,-9.468l0,-476.324c0,-78.629 -129.755,-209.852 -129.755,-209.852c0,0 -34.583,-27.451 -143.191,-157.1c-116.295,-138.831 -206.281,-73.375 -276.794,3.478c-70.509,76.853 -61.837,74.524 -158.187,177.299c-124.755,133.073 -107.817,192.249 -107.817,244.428l0,427.539Zm3.312,-12264.2l841.021,-14.545l0,-1200.38c0,-181.251 -3.237,-400.137 -148.765,-495.886c-145.531,-95.749 -340.841,-114.848 -518.223,9.389c-190.407,133.364 -176.975,486.063 -176.975,486.063l2.942,1215.36Zm6724.32,11706.8l-5218.73,-0l0,554.233l5218.73,-0l0,-554.233Zm11166,-1244.97l-2435.21,0l0,4560.31l2435.21,-0l0,-4560.31Zm-886.368,1362.45l-0,793.471c-0,181.527 -138.164,328.908 -308.344,328.908c-170.18,0 -308.344,-147.381 -308.344,-328.908l-0,-793.471c-0,-181.527 138.164,-328.903 308.344,-328.903c170.18,-0 308.344,147.376 308.344,328.903Zm-357.507,-3953.31c0,0 -411.19,358.846 -672.919,585.024c-261.735,226.183 -579.379,545.27 -579.379,806.803l0,540.818l2603.69,-0l0,-547.079c0,-0 76.202,-373.357 -499.515,-750.656c-646.822,-423.903 -851.876,-634.91 -851.876,-634.91Zm-20373.8,1675.11l8284.41,33.737l0,-627.987c0,-331.632 -418.579,-386.382 -418.579,-386.382l-7404.02,-0c-500.892,-0 -461.84,409.664 -461.84,409.664l-0,570.968l0.032,-0Zm-842.113,1434.71l4294.22,32.597c-0,-0 197.65,-202.674 402.048,-428.856c204.399,-226.188 436.674,-161.211 571.244,-25.38c134.57,135.831 398.714,416.31 398.714,416.31l4358.39,0l-930.314,-723.396l-8164.01,-0l-930.31,728.725l0.019,-0Zm10254,1837.34l-1940.23,-0l0,5823.6l1940.23,-0l0,-5823.6Zm1060.37,6403.81l-12639.4,-0l0,559.867l12639.4,-0l-0,-559.867Z"/></svg>