<?xml version="1.0" standalone="no"?>
<!DOCTYPE svg PUBLIC "-//W3C//DTD SVG 20010904//EN"
 "http://www.w3.org/TR/2001/REC-SVG-20010904/DTD/svg10.dtd">
<svg version="1.0" xmlns="http://www.w3.org/2000/svg"
 width="512.000000pt" height="512.000000pt" viewBox="0 0 512.000000 512.000000"
 preserveAspectRatio="xMidYMid meet">

<g transform="translate(0.000000,512.000000) scale(0.100000,-0.100000)"
fill="#000000" stroke="none">
<path d="M1385 4935 c-24 -23 -25 -31 -25 -135 0 -104 1 -112 25 -135 15 -16
36 -25 55 -25 19 0 40 9 55 25 24 23 25 31 25 135 0 104 -1 112 -25 135 -15
16 -36 25 -55 25 -19 0 -40 -9 -55 -25z"/>
<path d="M820 4700 c-13 -13 -20 -33 -20 -56 0 -32 9 -46 73 -110 89 -92 121
-102 168 -55 47 47 37 79 -55 169 -64 63 -78 72 -110 72 -23 0 -43 -7 -56 -20z"/>
<path d="M1900 4654 c-81 -78 -98 -110 -78 -151 7 -15 26 -34 41 -41 41 -20
73 -3 151 78 56 58 66 73 66 104 0 47 -29 76 -76 76 -31 0 -46 -10 -104 -66z"/>
<path d="M1346 4470 c-63 -16 -153 -70 -197 -117 -22 -24 -55 -74 -72 -111
-29 -61 -32 -76 -32 -163 0 -90 2 -99 37 -171 45 -91 103 -147 196 -191 61
-29 76 -32 162 -32 86 0 101 3 162 32 93 44 151 100 196 191 35 72 37 81 37
172 0 91 -2 100 -37 172 -68 136 -188 217 -336 224 -42 2 -94 -1 -116 -6z
m168 -162 c86 -26 166 -136 166 -228 0 -92 -80 -202 -166 -228 -94 -28 -169
-8 -239 63 -102 101 -102 229 0 330 70 71 145 90 239 63z"/>
<path d="M585 4135 c-16 -15 -25 -36 -25 -55 0 -19 9 -40 25 -55 23 -24 31
-25 135 -25 104 0 112 1 135 25 16 15 25 36 25 55 0 19 -9 40 -25 55 -23 24
-31 25 -135 25 -104 0 -112 -1 -135 -25z"/>
<path d="M2025 4135 c-16 -15 -25 -36 -25 -55 0 -19 9 -40 25 -55 23 -24 31
-25 135 -25 104 0 112 1 135 25 16 15 25 36 25 55 0 19 -9 40 -25 55 -23 24
-31 25 -135 25 -104 0 -112 -1 -135 -25z"/>
<path d="M3512 4143 c-24 -8 -69 -39 -101 -69 -166 -153 -242 -485 -195 -851
l7 -51 -39 9 c-22 5 -91 12 -154 15 -293 17 -573 -65 -704 -206 -84 -91 -110
-197 -61 -245 l24 -25 291 0 c159 0 290 -2 290 -5 0 -2 -16 -29 -35 -60 -43
-67 -92 -186 -105 -256 -23 -119 -1 -220 60 -281 66 -66 66 -66 309 176 l216
215 46 -43 c86 -78 200 -88 291 -24 14 10 28 18 31 18 10 0 69 -177 97 -290
26 -110 54 -293 64 -428 5 -70 10 -65 -89 -77 -118 -15 -325 -103 -431 -183
-48 -37 -55 -39 -149 -46 -213 -16 -383 -60 -560 -145 -140 -68 -257 -152
-353 -256 l-69 -75 -976 0 -977 0 0 -80 0 -80 1719 0 c1166 0 1745 -3 1798
-11 165 -22 337 -100 382 -172 27 -43 27 -71 0 -114 -58 -94 -308 -183 -512
-183 -48 0 -62 -4 -82 -25 -16 -15 -25 -36 -25 -55 0 -19 9 -40 25 -55 28 -29
74 -32 220 -14 198 24 360 92 460 193 122 122 127 257 13 381 l-50 55 361 0
362 0 24 25 c36 35 31 67 -23 175 -121 244 -314 451 -518 557 l-71 37 -7 139
c-15 319 -85 647 -191 899 -19 45 -35 84 -35 85 0 2 185 3 410 3 l411 0 24 25
c52 51 22 159 -70 251 -136 137 -402 216 -683 201 l-104 -5 241 242 c272 273
270 270 203 336 -68 69 -177 86 -315 50 -145 -37 -307 -135 -447 -270 l-80
-77 0 319 0 319 -25 24 c-28 29 -76 32 -143 8z m-12 -955 c-11 -26 -24 -58
-30 -72 -9 -23 -12 -25 -35 -14 -29 13 -48 68 -65 183 -31 221 13 480 107 623
l38 57 3 -365 c2 -347 1 -367 -18 -412z m565 211 c-198 -198 -298 -291 -340
-316 -33 -19 -72 -46 -87 -61 -35 -33 -37 -16 -6 65 91 247 371 513 608 579
25 7 58 13 75 13 27 1 2 -27 -250 -280z m-948 -370 c106 -14 241 -61 311 -106
l57 -38 -262 -3 c-145 -1 -381 -1 -525 0 l-263 3 57 38 c66 43 204 92 298 105
92 13 235 14 327 1z m1280 0 c106 -14 241 -61 311 -106 l57 -38 -262 -3 c-145
-1 -381 -1 -525 0 l-263 3 57 38 c66 43 204 92 298 105 92 13 235 14 327 1z
m-1107 -317 c0 -4 -92 -99 -205 -212 -221 -220 -222 -221 -190 -100 20 75 64
162 127 247 l53 73 108 0 c59 0 107 -3 107 -8z m285 -17 c16 -15 25 -36 25
-55 0 -19 -9 -40 -25 -55 -15 -16 -36 -25 -55 -25 -19 0 -40 9 -55 25 -16 15
-25 36 -25 55 0 19 9 40 25 55 15 16 36 25 55 25 19 0 40 -9 55 -25z m320 0
c16 -15 25 -36 25 -55 0 -19 -9 -40 -25 -55 -15 -16 -36 -25 -55 -25 -19 0
-40 9 -55 25 -16 15 -25 36 -25 55 0 19 9 40 25 55 15 16 36 25 55 25 19 0 40
-9 55 -25z m148 -312 c39 -129 57 -205 78 -327 19 -109 46 -393 38 -400 -2 -2
-35 2 -73 8 -82 14 -79 9 -89 163 -9 125 -46 334 -85 468 -16 55 -28 103 -26
107 3 3 17 9 32 13 15 3 41 17 57 30 17 13 33 24 36 25 3 0 18 -39 32 -87z
m77 -888 c153 -40 309 -133 432 -256 66 -67 198 -247 198 -271 0 -4 -373 -8
-830 -8 -456 0 -830 4 -830 8 0 5 27 50 61 101 153 232 368 383 619 437 83 17
262 11 350 -11z m-1030 -230 c0 -3 -18 -29 -39 -58 -40 -53 -141 -225 -141
-239 0 -4 -111 -8 -247 -8 l-246 0 24 26 c97 104 335 219 549 265 99 21 100
21 100 14z"/>
<path d="M955 3700 c-28 -11 -151 -140 -159 -167 -10 -31 13 -75 47 -91 40
-20 70 -4 150 76 83 84 93 117 49 162 -31 30 -51 35 -87 20z"/>
<path d="M1839 3681 c-47 -47 -37 -79 55 -168 64 -64 78 -73 110 -73 23 0 43
7 56 20 13 13 20 33 20 56 0 32 -9 46 -72 110 -90 92 -122 102 -169 55z"/>
<path d="M1385 3495 c-24 -23 -25 -31 -25 -135 0 -104 1 -112 25 -135 15 -16
36 -25 55 -25 19 0 40 9 55 25 24 23 25 31 25 135 0 104 -1 112 -25 135 -15
16 -36 25 -55 25 -19 0 -40 -9 -55 -25z"/>
<path d="M1120 2547 c-49 -16 -133 -102 -148 -153 -19 -64 -15 -102 13 -129
49 -50 135 -15 135 55 0 41 39 80 80 80 19 0 40 -9 55 -25 16 -15 25 -36 25
-55 0 -41 39 -80 80 -80 41 0 80 39 80 80 0 41 39 80 80 80 41 0 80 -39 80
-80 0 -70 86 -105 135 -55 48 47 26 145 -50 220 -87 87 -201 100 -297 33 -28
-19 -28 -19 -55 0 -60 41 -140 52 -213 29z"/>
<path d="M480 2067 c-49 -16 -133 -102 -148 -153 -19 -64 -15 -102 13 -129 49
-50 135 -15 135 55 0 41 39 80 80 80 41 0 80 -39 80 -80 0 -41 39 -80 80 -80
41 0 80 39 80 80 0 41 39 80 80 80 41 0 80 -39 80 -80 0 -70 86 -105 135 -55
48 47 26 145 -50 220 -87 87 -201 100 -297 33 -28 -19 -28 -19 -55 0 -60 41
-140 52 -213 29z"/>
<path d="M185 615 c-16 -15 -25 -36 -25 -55 0 -19 9 -40 25 -55 l24 -25 351 0
351 0 24 25 c16 15 25 36 25 55 0 19 -9 40 -25 55 l-24 25 -351 0 -351 0 -24
-25z"/>
<path d="M1305 615 c-16 -15 -25 -36 -25 -55 0 -19 9 -40 25 -55 l24 -25 431
0 431 0 24 25 c16 15 25 36 25 55 0 19 -9 40 -25 55 l-24 25 -431 0 -431 0
-24 -25z"/>
<path d="M2585 615 c-16 -15 -25 -36 -25 -55 0 -19 9 -40 25 -55 l24 -25 351
0 351 0 24 25 c16 15 25 36 25 55 0 19 -9 40 -25 55 l-24 25 -351 0 -351 0
-24 -25z"/>
<path d="M585 295 c-16 -15 -25 -36 -25 -55 0 -19 9 -40 25 -55 l24 -25 591 0
591 0 24 25 c33 32 33 78 0 110 l-24 25 -591 0 -591 0 -24 -25z"/>
<path d="M2185 295 c-16 -15 -25 -36 -25 -55 0 -19 9 -40 25 -55 24 -25 26
-25 215 -25 189 0 191 0 215 25 16 15 25 36 25 55 0 19 -9 40 -25 55 -24 25
-26 25 -215 25 -189 0 -191 0 -215 -25z"/>
</g>
</svg>
