<?xml version="1.0" encoding="UTF-8" standalone="no"?><!DOCTYPE svg PUBLIC "-//W3C//DTD SVG 1.1//EN" "http://www.w3.org/Graphics/SVG/1.1/DTD/svg11.dtd"><svg width="100%" height="100%" viewBox="0 0 2134 2134" version="1.1" xmlns="http://www.w3.org/2000/svg" xmlns:xlink="http://www.w3.org/1999/xlink" xml:space="preserve" xmlns:serif="http://www.serif.com/" style="fill-rule:evenodd;clip-rule:evenodd;stroke-linejoin:round;stroke-miterlimit:2;"><path d="M156.925,1799.76l-156.082,0l-0.843,-56.362l0,-770.969c0,-37.296 -0,-29.988 -0,-29.988l172.187,-0l-0,-142.226c29.933,-14.994 172.24,-59.894 261.987,-59.894c89.748,-0 194.543,14.966 194.543,14.966l-0,-112.292l-29.934,0c-7.497,0 -29.961,0 -29.961,-29.933c0,-29.934 22.464,-29.934 22.464,-29.934l164.69,-0l-0,-74.861c-0,-37.431 22.464,-37.431 22.464,-37.431l576.373,-0c29.961,-0 22.464,29.934 22.464,29.934l-0,82.358l164.689,-0c7.497,-0 22.464,7.47 22.464,29.934c0,22.463 -22.464,29.933 -22.464,29.933l-37.43,0l-0,112.292c67.364,-22.463 247.021,-7.469 247.021,-7.469c112.292,7.469 209.59,52.397 209.59,52.397l-0,149.696l172.186,-0l0,793.487l-0.16,56.362l-102.599,0c-22.437,0 -74.199,-0.216 -74.199,-0.216l-1616.97,0c-14.967,0 -147.53,0.216 -182.477,0.216Zm1291.46,-1160.49l-67.419,-0l0,142.226c14.967,-7.497 67.419,-14.994 67.419,-14.994l-0,-127.232Zm-509.009,943.938l254.491,0l-0,-381.561c-0,-63.67 -59.949,-113.263 -127.232,-134.837c-66.07,22.033 -127.259,65.127 -127.259,134.837l-0,381.561Zm739.839,-128.017l232.198,0.625l0,-449.763c-102.319,-42.607 -232.946,-42.669 -232.946,-42.669l0.748,491.807Zm-291.804,0.015l232.539,0.61l0,-492.217c-111.698,-3.741 -232.539,42.454 -232.539,42.454l-0,449.153Zm-61.782,-541.975l-516.613,0l-0,598.864l0.485,70.358l70.627,0.755l0,-384.015c0,-77.1 88.993,-169.894 187.127,-184.915c87.59,16.477 187.153,107.869 187.153,184.915l0,384.015l71.113,0l0.108,-669.977Zm-809.912,541.96l236.505,0.625l0,-449.763c-104.217,-42.607 -237.267,-42.669 -237.267,-42.669l0.762,491.807Zm-287.497,0.015l222.355,0.61l-0,-492.217c-106.806,-3.741 -222.355,42.454 -222.355,42.454l-0,449.153Zm1845.21,190.863l-2013.62,0l-0,89.828l2013.62,0l-0,-89.828Zm-1897.61,-640.016l-119.762,-0l0,232.054l119.762,-0l0,-232.054Zm0,284.452l-119.762,-0l0,299.418l119.762,0l0,-299.418Zm576.4,217.087l-524.002,-0l-0,74.861l524.002,0l0,-74.861Zm1152.8,-0l-524.003,-0l0,74.861l524.003,0l-0,-74.861Zm-1152.8,-860.852l-67.256,-0l-0,119.762c-0,-0 52.397,7.497 67.418,14.994l-0.162,-134.756Zm568.904,-123.511l-512.758,0l0,63.616l512.758,0l-0,-63.616Zm756.056,767.276l-119.762,-0l0,299.418l119.762,0l0,-299.418Zm-1601.91,-486.572c-83.235,0.342 -166.145,10.397 -247.048,29.96l-0,104.795c71.014,-34.452 258.266,-33.682 258.266,-33.682c104.795,0 265.736,33.682 265.736,33.682l0,-97.325c-22.463,-7.47 -142.225,-37.43 -276.954,-37.43Zm845.885,-164.663l-509.036,-0l-0,232.054l509.036,0l-0,-232.054Zm-450.85,149.777l-0,-67.419c-0,-20.534 16.896,-37.43 37.43,-37.43c20.534,-0 37.431,16.896 37.431,37.43l-0,67.419c-0,20.533 -16.897,37.43 -37.431,37.43c-20.534,0 -37.43,-16.897 -37.43,-37.43Zm317.802,-0.041l0,-67.418c0,-20.534 16.897,-37.431 37.431,-37.431c20.534,0 37.431,16.897 37.431,37.431l-0,67.418c-0,20.534 -16.897,37.431 -37.431,37.431c-20.534,-0 -37.431,-16.897 -37.431,-37.431Zm-153.113,0.041l0,-67.419c0,-20.534 16.897,-37.43 37.431,-37.43c20.534,-0 37.431,16.896 37.431,37.43l-0,67.419c-0,20.533 -16.897,37.43 -37.431,37.43c-20.534,0 -37.431,-16.897 -37.431,-37.43Zm870.031,52.316c-22.464,-7.47 -140.743,-37.43 -273.233,-37.43c-81.988,0.368 -163.646,10.425 -243.273,29.96l0,104.795c55.391,-26.212 254.491,-33.682 254.491,-33.682c103.312,0 262.015,33.682 262.015,33.682l-0,-97.325Zm172.159,164.69l-119.762,-0l0,232.054l119.762,-0l0,-232.054Z"/></svg>